<svg width="528" height="126" viewBox="0 0 528 126" fill="none" xmlns="http://www.w3.org/2000/svg">
<path d="M36.1317 87.632C34.3557 88.4 32.2917 88.952 29.9397 89.288C27.5877 89.624 25.4037 89.792 23.3877 89.792C16.8597 89.792 11.7477 88.088 8.05166 84.68C4.35566 81.272 2.50766 76.04 2.50766 68.984C2.50766 61.784 4.45166 56.408 8.33966 52.856C12.2277 49.256 17.6997 47.456 24.7557 47.456C28.1157 47.456 31.6197 47.912 35.2677 48.824C35.2677 49.784 35.1717 51.224 34.9797 53.144C34.7877 55.016 34.5957 56.336 34.4037 57.104H29.8677C26.5557 57.104 23.9397 57.176 22.0197 57.32C20.1477 57.416 19.0197 57.632 18.6357 57.968C17.9157 58.64 17.3637 60.008 16.9797 62.072C16.5957 64.088 16.4037 66.032 16.4037 67.904C16.4037 71.168 16.8117 73.688 17.6277 75.464C18.4437 77.192 19.4757 78.344 20.7237 78.92C21.9237 79.496 23.9157 79.784 26.6997 79.784C28.9077 79.784 31.7877 79.592 35.3397 79.208L36.1317 87.632ZM59.9417 89L58.7897 84.464C56.5817 88.064 53.5097 89.864 49.5737 89.864C46.3577 89.864 43.7177 88.976 41.6537 87.2C39.6377 85.376 38.6297 82.832 38.6297 79.568C38.6297 77.552 39.2057 75.8 40.3577 74.312C41.5577 72.776 43.1897 71.696 45.2537 71.072C47.9417 70.304 52.0937 69.872 57.7097 69.776C57.7097 66.608 57.5657 64.928 57.2777 64.736C57.0377 64.544 56.2697 64.448 54.9737 64.448C54.1577 64.448 53.0297 64.496 51.5897 64.592C49.2857 64.688 46.1657 64.952 42.2297 65.384C41.8457 62.792 41.5577 60.008 41.3657 57.032C43.9097 56.504 46.5737 56.072 49.3577 55.736C52.1417 55.352 54.6377 55.16 56.8457 55.16C60.6857 55.16 63.5657 55.808 65.4857 57.104C67.4057 58.352 68.6537 60.008 69.2297 62.072C69.8057 64.136 70.0697 66.752 70.0217 69.92L69.9497 80.504L70.1657 89H59.9417ZM53.7497 81.8C54.9977 81.8 56.3177 81.56 57.7097 81.08V75.752H57.1337C53.5817 75.752 51.6137 75.944 51.2297 76.328C50.9897 76.568 50.7977 76.928 50.6537 77.408C50.5577 77.888 50.5097 78.344 50.5097 78.776C50.5097 79.928 50.7737 80.72 51.3017 81.152C51.8297 81.584 52.6457 81.8 53.7497 81.8ZM110.789 89H97.3969L90.5569 75.536C89.8849 74.144 88.9969 73.256 87.8929 72.872V89H75.5809V45.8L87.8929 45.296V69.848C89.0449 69.368 90.0289 68.384 90.8449 66.896L96.9649 55.88L110.429 55.808L103.445 67.04C102.341 68.816 101.141 70.232 99.8449 71.288C100.949 72.488 102.197 74.312 103.589 76.76L110.789 89ZM133.497 80.36C134.697 80.36 136.929 80.24 140.193 80C140.625 80 141.417 79.952 142.569 79.856L143.649 87.272C139.953 89 135.153 89.864 129.249 89.864C123.729 89.864 119.481 88.472 116.505 85.688C113.577 82.904 112.113 78.704 112.113 73.088C112.113 70.208 112.473 67.424 113.193 64.736C113.961 62.048 114.825 60.176 115.785 59.12C116.793 58.064 118.665 57.152 121.401 56.384C124.137 55.616 126.849 55.232 129.537 55.232C133.857 55.232 137.097 56 139.257 57.536C141.417 59.072 142.833 61.208 143.505 63.944C144.177 66.632 144.513 70.256 144.513 74.816C141.249 75.008 138.057 75.104 134.937 75.104H124.713C124.713 76.64 125.025 77.792 125.649 78.56C126.321 79.328 127.257 79.832 128.457 80.072C129.657 80.264 131.337 80.36 133.497 80.36ZM125.433 63.8C125.145 63.944 124.929 64.568 124.785 65.672C124.641 66.776 124.545 68.024 124.497 69.416H128.241C130.497 69.416 132.129 69.392 133.137 69.344C133.137 67.04 132.801 65.408 132.129 64.448C131.505 63.488 130.401 63.008 128.817 63.008C127.521 63.008 126.393 63.272 125.433 63.8ZM175.631 77.768C175.631 82.04 174.263 85.112 171.527 86.984C168.839 88.856 164.999 89.792 160.007 89.792C156.503 89.792 152.471 89.288 147.911 88.28C148.007 87.32 148.223 85.952 148.559 84.176C148.943 82.352 149.255 80.96 149.495 80C151.223 80.288 153.143 80.528 155.255 80.72C157.367 80.864 159.167 80.936 160.655 80.936C161.951 80.936 162.743 80.864 163.031 80.72C163.079 80.672 163.127 80.552 163.175 80.36C163.271 80.12 163.319 79.88 163.319 79.64C163.319 78.68 162.719 78.032 161.519 77.696C161.135 77.6 159.671 77.192 157.127 76.472C154.583 75.752 152.495 74.456 150.863 72.584C149.279 70.664 148.487 68.288 148.487 65.456C148.487 63.968 148.823 62.312 149.495 60.488C150.167 58.664 150.887 57.512 151.655 57.032C152.231 56.648 153.623 56.264 155.831 55.88C158.039 55.448 160.079 55.232 161.951 55.232C165.935 55.232 169.943 55.52 173.975 56.096C173.975 56.96 173.855 58.424 173.615 60.488C173.375 62.504 173.159 63.776 172.967 64.304C168.887 63.776 165.599 63.512 163.103 63.512C161.807 63.512 160.967 63.584 160.583 63.728C160.487 63.776 160.391 63.92 160.295 64.16C160.199 64.352 160.151 64.616 160.151 64.952C160.151 65.624 160.367 66.104 160.799 66.392C161.231 66.728 162.359 67.136 164.183 67.616C166.343 68.24 168.191 68.888 169.727 69.56C171.311 70.232 172.679 71.24 173.831 72.584C175.031 73.928 175.631 75.656 175.631 77.768Z" fill="#706E72"/>
<path d="M251.789 67.112C251.933 67.064 252.173 67.04 252.509 67.04C253.229 67.04 253.781 67.28 254.165 67.76C254.549 68.24 254.741 68.888 254.741 69.704C254.741 71.192 254.453 72.368 253.877 73.232C253.301 74.048 252.437 74.648 251.285 75.032C249.077 75.752 246.725 76.112 244.229 76.112C242.117 76.112 240.125 75.824 238.253 75.248C236.861 77.504 235.325 79.832 233.645 82.232C231.725 84.968 230.069 86.84 228.677 87.848C227.333 88.856 225.797 89.36 224.069 89.36C222.149 89.36 220.685 88.616 219.677 87.128C218.717 85.64 218.117 83.192 217.877 79.784L217.517 74.528C216.029 78.56 214.685 81.632 213.485 83.744C212.333 85.856 211.157 87.32 209.957 88.136C208.805 88.952 207.437 89.36 205.853 89.36C203.885 89.36 202.325 88.592 201.173 87.056C200.069 85.52 199.373 83.096 199.085 79.784C198.509 73.064 198.221 67.184 198.221 62.144V59.624C198.269 58.04 198.701 56.936 199.517 56.312C200.333 55.688 201.557 55.376 203.189 55.376C204.437 55.376 205.349 55.664 205.925 56.24C206.549 56.768 206.861 57.68 206.861 58.976C206.861 64.496 207.197 71.672 207.869 80.504C211.133 73.64 214.133 66.488 216.869 59.048C217.397 57.608 218.021 56.648 218.741 56.168C219.509 55.64 220.421 55.376 221.477 55.376C222.773 55.376 223.661 55.64 224.141 56.168C224.669 56.696 224.933 57.632 224.933 58.976C224.933 64.496 225.269 71.672 225.941 80.504C228.821 76.232 230.981 72.824 232.421 70.28C231.701 68.888 231.341 67.232 231.341 65.312C231.341 63.68 231.701 62.096 232.421 60.56C233.141 59.024 234.125 57.776 235.373 56.816C236.621 55.856 238.037 55.376 239.621 55.376C241.013 55.376 242.141 55.88 243.005 56.888C243.869 57.848 244.301 59.264 244.301 61.136C244.301 63.296 243.725 65.768 242.573 68.552C244.397 68.456 246.821 68.096 249.845 67.472L251.789 67.112ZM257.923 50.696C255.907 50.696 254.395 50.24 253.387 49.328C252.379 48.368 251.875 47.048 251.875 45.368C251.875 43.688 252.523 42.296 253.819 41.192C255.163 40.04 256.819 39.464 258.787 39.464C260.563 39.464 262.003 39.896 263.107 40.76C264.211 41.624 264.763 42.848 264.763 44.432C264.763 46.352 264.139 47.888 262.891 49.04C261.643 50.144 259.987 50.696 257.923 50.696ZM257.347 89.36C254.227 89.36 251.947 88.256 250.507 86.048C249.115 83.84 248.419 80.912 248.419 77.264C248.419 75.104 248.683 72.344 249.211 68.984C249.787 65.576 250.507 62.408 251.371 59.48C251.803 57.944 252.379 56.888 253.099 56.312C253.819 55.736 254.971 55.448 256.555 55.448C259.003 55.448 260.227 56.264 260.227 57.896C260.227 59.096 259.771 61.88 258.859 66.248C257.707 71.528 257.131 75.104 257.131 76.976C257.131 78.416 257.323 79.52 257.707 80.288C258.091 81.056 258.739 81.44 259.651 81.44C260.515 81.44 261.595 80.84 262.891 79.64C264.187 78.44 265.915 76.544 268.075 73.952C268.651 73.28 269.299 72.944 270.019 72.944C270.643 72.944 271.123 73.232 271.459 73.808C271.843 74.384 272.035 75.176 272.035 76.184C272.035 78.104 271.579 79.592 270.667 80.648C265.915 86.456 261.475 89.36 257.347 89.36ZM298.322 72.944C298.946 72.944 299.426 73.232 299.762 73.808C300.146 74.384 300.338 75.176 300.338 76.184C300.338 78.104 299.882 79.592 298.97 80.648C296.906 83.192 294.65 85.28 292.202 86.912C289.754 88.544 286.946 89.36 283.778 89.36C273.986 89.36 269.09 82.472 269.09 68.696C269.09 66.584 269.162 64.448 269.306 62.288H266.498C265.058 62.288 264.074 62.024 263.546 61.496C263.066 60.968 262.826 60.128 262.826 58.976C262.826 56.288 263.906 54.944 266.066 54.944H270.17C270.986 49.664 272.234 44.84 273.914 40.472C275.594 36.104 277.61 32.624 279.962 30.032C282.362 27.44 284.93 26.144 287.666 26.144C289.682 26.144 291.266 27.032 292.418 28.808C293.57 30.584 294.146 32.816 294.146 35.504C294.146 42.944 291.026 49.424 284.786 54.944H292.85C293.618 54.944 294.17 55.112 294.506 55.448C294.842 55.784 295.01 56.408 295.01 57.32C295.01 60.632 292.298 62.288 286.874 62.288H278.09C277.994 64.688 277.946 66.56 277.946 67.904C277.946 72.896 278.522 76.4 279.674 78.416C280.874 80.432 282.746 81.44 285.29 81.44C287.354 81.44 289.178 80.816 290.762 79.568C292.346 78.32 294.218 76.448 296.378 73.952C296.954 73.28 297.602 72.944 298.322 72.944ZM285.722 33.056C285.002 33.056 284.186 33.968 283.274 35.792C282.41 37.568 281.57 40.064 280.754 43.28C279.986 46.448 279.338 49.976 278.81 53.864C281.642 51.416 283.754 48.68 285.146 45.656C286.586 42.584 287.306 39.8 287.306 37.304C287.306 34.472 286.778 33.056 285.722 33.056ZM319.964 55.448C321.5 55.448 322.652 55.856 323.42 56.672C324.236 57.44 324.644 58.592 324.644 60.128C324.644 61.376 324.38 63.728 323.852 67.184C323.372 70.112 322.988 72.896 322.7 75.536C322.412 78.128 322.268 81.032 322.268 84.248C322.268 86.072 321.884 87.392 321.116 88.208C320.396 88.976 319.196 89.36 317.516 89.36C315.932 89.36 314.78 88.952 314.06 88.136C313.34 87.32 312.98 86.096 312.98 84.464C312.98 82.544 313.316 79.376 313.988 74.96C314.564 71.12 314.852 68.672 314.852 67.616C314.852 66.848 314.588 66.464 314.06 66.464C313.436 66.464 312.548 67.28 311.396 68.912C310.244 70.496 309.092 72.608 307.94 75.248C306.788 77.888 305.852 80.672 305.132 83.6C304.604 85.856 303.98 87.392 303.26 88.208C302.588 88.976 301.508 89.36 300.02 89.36C298.532 89.36 297.428 88.832 296.708 87.776C296.036 86.672 295.58 84.992 295.34 82.736C295.1 80.48 294.98 77.168 294.98 72.8C294.98 65.408 295.724 57.704 297.212 49.688C298.748 41.672 300.98 34.952 303.908 29.528C306.884 24.056 310.436 21.32 314.564 21.32C316.772 21.32 318.548 22.28 319.892 24.2C321.284 26.072 321.98 28.52 321.98 31.544C321.98 36.392 320.564 41.432 317.732 46.664C314.9 51.848 310.292 57.92 303.908 64.88C303.764 67.376 303.692 69.944 303.692 72.584C305.276 68.504 307.028 65.192 308.948 62.648C310.916 60.056 312.836 58.208 314.708 57.104C316.628 56 318.38 55.448 319.964 55.448ZM313.052 28.448C312.188 28.448 311.228 29.696 310.172 32.192C309.116 34.64 308.084 37.976 307.076 42.2C306.116 46.376 305.324 50.936 304.7 55.88C307.676 52.376 310.124 48.56 312.044 44.432C314.012 40.304 314.996 36.56 314.996 33.2C314.996 31.664 314.828 30.488 314.492 29.672C314.156 28.856 313.676 28.448 313.052 28.448ZM409.595 73.088C410.219 73.088 410.699 73.4 411.035 74.024C411.419 74.6 411.611 75.344 411.611 76.256C411.611 77.36 411.443 78.224 411.107 78.848C410.771 79.472 410.243 80.024 409.523 80.504C406.691 82.376 402.179 85.448 395.987 89.72C394.115 99.656 391.691 107.48 388.715 113.192C385.739 118.904 381.971 121.76 377.411 121.76C374.963 121.76 372.971 120.992 371.435 119.456C369.899 117.968 369.131 116 369.131 113.552C369.131 111.296 369.635 109.016 370.643 106.712C371.651 104.408 373.523 101.744 376.259 98.72C379.043 95.696 382.955 92.24 387.995 88.352L388.211 86.984C384.419 88.568 380.699 89.36 377.051 89.36C371.675 89.36 366.947 88.328 362.867 86.264C358.787 84.152 355.619 81.176 353.363 77.336C351.107 73.496 349.979 69.032 349.979 63.944C349.979 56.84 351.323 50.576 354.011 45.152C356.699 39.68 360.395 35.456 365.099 32.48C369.851 29.456 375.155 27.944 381.011 27.944C386.627 27.944 390.827 29.264 393.611 31.904C396.443 34.496 397.859 37.952 397.859 42.272C397.859 45.104 397.331 47.384 396.275 49.112C395.267 50.792 393.803 51.632 391.883 51.632C390.587 51.632 389.531 51.32 388.715 50.696C387.947 50.072 387.563 49.208 387.563 48.104C387.563 47.624 387.659 46.808 387.851 45.656C388.139 44.312 388.283 43.256 388.283 42.488C388.283 40.472 387.659 38.912 386.411 37.808C385.211 36.704 383.171 36.152 380.291 36.152C376.787 36.152 373.523 37.16 370.499 39.176C367.523 41.192 365.123 44.216 363.299 48.248C361.475 52.232 360.563 57.032 360.563 62.648C360.563 68.408 362.123 72.872 365.243 76.04C368.411 79.16 372.971 80.72 378.923 80.72C382.235 80.72 385.691 79.976 389.291 78.488L390.299 69.704H382.955C381.611 69.704 380.579 69.392 379.859 68.768C379.139 68.096 378.779 67.016 378.779 65.528C378.779 64.184 379.139 63.128 379.859 62.36C380.579 61.592 381.539 61.208 382.739 61.208H396.203C397.259 61.208 398.123 61.568 398.795 62.288C399.515 62.96 399.803 63.944 399.659 65.24C399.515 66.776 399.035 70.256 398.219 75.68L397.427 81.152C401.267 78.272 404.771 75.776 407.939 73.664C408.563 73.28 409.115 73.088 409.595 73.088ZM378.203 114.776C379.451 114.776 380.819 113.36 382.307 110.528C383.795 107.696 385.187 103.136 386.483 96.848C382.835 99.968 380.195 102.776 378.563 105.272C376.979 107.816 376.187 110.048 376.187 111.968C376.187 113.84 376.859 114.776 378.203 114.776ZM411.525 89.36C409.701 89.36 408.405 88.4 407.637 86.48C406.917 84.56 406.557 81.488 406.557 77.264C406.557 71.024 407.445 65.096 409.221 59.48C409.653 58.088 410.349 57.08 411.309 56.456C412.317 55.784 413.709 55.448 415.485 55.448C416.445 55.448 417.117 55.568 417.501 55.808C417.885 56.048 418.077 56.504 418.077 57.176C418.077 57.944 417.717 59.672 416.997 62.36C416.517 64.28 416.133 65.96 415.845 67.4C415.557 68.84 415.317 70.616 415.125 72.728C416.709 68.6 418.485 65.24 420.453 62.648C422.421 60.056 424.341 58.208 426.213 57.104C428.133 56 429.885 55.448 431.469 55.448C434.589 55.448 436.149 57.008 436.149 60.128C436.149 60.752 435.933 62.264 435.501 64.664C435.117 66.584 434.925 67.784 434.925 68.264C434.925 69.944 435.525 70.784 436.725 70.784C438.069 70.784 439.797 69.728 441.909 67.616C442.533 66.992 443.181 66.68 443.853 66.68C444.477 66.68 444.957 66.968 445.293 67.544C445.677 68.072 445.869 68.792 445.869 69.704C445.869 71.48 445.389 72.872 444.429 73.88C443.085 75.272 441.501 76.472 439.677 77.48C437.901 78.44 436.005 78.92 433.989 78.92C431.445 78.92 429.501 78.272 428.157 76.976C426.861 75.68 426.213 73.928 426.213 71.72C426.213 71 426.285 70.28 426.429 69.56C426.525 68.6 426.573 67.952 426.573 67.616C426.573 66.848 426.309 66.464 425.781 66.464C425.061 66.464 424.101 67.28 422.901 68.912C421.749 70.496 420.597 72.608 419.445 75.248C418.293 77.888 417.357 80.672 416.637 83.6C416.109 85.856 415.485 87.392 414.765 88.208C414.093 88.976 413.013 89.36 411.525 89.36ZM448.035 89.36C445.059 89.36 442.683 88.28 440.907 86.12C439.131 83.96 438.243 81.128 438.243 77.624C438.243 73.784 439.131 70.16 440.907 66.752C442.683 63.296 445.035 60.536 447.963 58.472C450.939 56.36 454.083 55.304 457.395 55.304C458.451 55.304 459.147 55.52 459.483 55.952C459.867 56.336 460.179 57.056 460.419 58.112C461.427 57.92 462.483 57.824 463.587 57.824C465.939 57.824 467.115 58.664 467.115 60.344C467.115 61.352 466.755 63.752 466.035 67.544C464.931 73.064 464.379 76.904 464.379 79.064C464.379 79.784 464.547 80.36 464.883 80.792C465.267 81.224 465.747 81.44 466.323 81.44C467.235 81.44 468.339 80.864 469.635 79.712C470.931 78.512 472.683 76.592 474.891 73.952C475.467 73.28 476.115 72.944 476.835 72.944C477.459 72.944 477.939 73.232 478.275 73.808C478.659 74.384 478.851 75.176 478.851 76.184C478.851 78.104 478.395 79.592 477.483 80.648C475.515 83.096 473.427 85.16 471.219 86.84C469.011 88.52 466.875 89.36 464.811 89.36C463.227 89.36 461.763 88.832 460.419 87.776C459.123 86.672 458.139 85.184 457.467 83.312C454.971 87.344 451.827 89.36 448.035 89.36ZM450.627 82.088C451.683 82.088 452.691 81.464 453.651 80.216C454.611 78.968 455.307 77.312 455.739 75.248L458.403 62C456.387 62.048 454.515 62.816 452.787 64.304C451.107 65.744 449.763 67.664 448.755 70.064C447.747 72.464 447.243 75.008 447.243 77.696C447.243 79.184 447.531 80.288 448.107 81.008C448.731 81.728 449.571 82.088 450.627 82.088ZM486.751 89.36C482.047 89.36 478.375 88.04 475.735 85.4C473.143 82.712 471.847 79.184 471.847 74.816C471.847 70.928 472.615 67.52 474.151 64.592C475.687 61.664 477.679 59.408 480.127 57.824C482.575 56.24 485.143 55.448 487.831 55.448C490.471 55.448 492.511 56.24 493.951 57.824C495.439 59.36 496.183 61.352 496.183 63.8C496.183 65.816 495.727 67.52 494.815 68.912C493.951 70.304 492.799 71 491.359 71C490.447 71 489.703 70.784 489.127 70.352C488.599 69.92 488.335 69.32 488.335 68.552C488.335 68.216 488.383 67.832 488.479 67.4C488.575 66.968 488.647 66.656 488.695 66.464C488.935 65.744 489.055 65.072 489.055 64.448C489.055 63.824 488.887 63.344 488.551 63.008C488.263 62.672 487.831 62.504 487.255 62.504C486.151 62.504 485.119 63.008 484.159 64.016C483.199 64.976 482.431 66.296 481.855 67.976C481.279 69.656 480.991 71.504 480.991 73.52C480.991 79.088 483.415 81.872 488.263 81.872C490.231 81.872 492.343 81.224 494.599 79.928C496.903 78.584 499.159 76.592 501.367 73.952C501.943 73.28 502.591 72.944 503.311 72.944C503.935 72.944 504.415 73.232 504.751 73.808C505.135 74.384 505.327 75.176 505.327 76.184C505.327 78.008 504.871 79.496 503.959 80.648C501.703 83.432 498.991 85.592 495.823 87.128C492.703 88.616 489.679 89.36 486.751 89.36ZM525.283 75.104C525.907 75.104 526.387 75.392 526.723 75.968C527.107 76.544 527.299 77.336 527.299 78.344C527.299 80.072 526.891 81.56 526.075 82.808C524.731 84.872 522.955 86.48 520.747 87.632C518.587 88.784 515.995 89.36 512.971 89.36C508.363 89.36 504.787 87.992 502.243 85.256C499.699 82.472 498.427 78.728 498.427 74.024C498.427 70.712 499.123 67.64 500.515 64.808C501.907 61.928 503.827 59.648 506.275 57.968C508.771 56.288 511.579 55.448 514.699 55.448C517.483 55.448 519.715 56.288 521.395 57.968C523.075 59.6 523.915 61.832 523.915 64.664C523.915 67.976 522.715 70.832 520.315 73.232C517.963 75.584 513.931 77.456 508.219 78.848C509.371 81.056 511.315 82.16 514.051 82.16C516.019 82.16 517.627 81.704 518.875 80.792C520.171 79.88 521.659 78.344 523.339 76.184C523.915 75.464 524.563 75.104 525.283 75.104ZM513.475 62.504C511.699 62.504 510.187 63.536 508.939 65.6C507.739 67.664 507.139 70.16 507.139 73.088V73.232C509.971 72.56 512.203 71.552 513.835 70.208C515.467 68.864 516.283 67.304 516.283 65.528C516.283 64.616 516.019 63.896 515.491 63.368C515.011 62.792 514.339 62.504 513.475 62.504Z" fill="#4C4A4F"/>
</svg>
